# xmcd
#
# Track frame offsets:
#	150
#	11174
#	25153
#	38092
#	50597
#	65073
#	73810
#	84955
#	100305
#	117000
#	129147
#	143995
#	155213
#
# Disc length: 2189 seconds
# Revision: 0
# Processed by: cddbd v1.5.2PL0 Copyright (c) Steve Scherf et al.
# Submitted via: dBpowerAMP V12.0
#
DISCID=b2088b0d
DTITLE=Rob Benzing - Rob Benzing
DYEAR=2017
DGENRE=Bluegrass
TTITLE0=Sockeye
TTITLE1=Monocacy Crossing
TTITLE2=No Longer a Sweetheart of Mine
TTITLE3=Lonesome Road Blues
TTITLE4=Have You Come to Say Goodbye?
TTITLE5=Armadillo Breakdown
TTITLE6=It's Only Right That I Should Pay
TTITLE7=The Bells of St. Mary's
TTITLE8=Carry Me
TTITLE9=Fingerboard Road
TTITLE10=Dixie Breakdown
TTITLE11=Lonesome River
TTITLE12=Shenandoah Breakdown
EXTD=
EXTT0=
EXTT1=
EXTT2=
EXTT3=
EXTT4=
EXTT5=
EXTT6=
EXTT7=
EXTT8=
EXTT9=
EXTT10=
EXTT11=
EXTT12=
PLAYORDER=
